<svg width="207" height="57" viewBox="0 0 207 57" fill="none" xmlns="http://www.w3.org/2000/svg">
<path d="M91.9025 21C91.5558 21 91.2611 20.8873 91.0185 20.662C90.7931 20.4193 90.6805 20.1247 90.6805 19.778V1.916C90.6805 1.56933 90.7931 1.28333 91.0185 1.058C91.2611 0.815333 91.5558 0.694 91.9025 0.694H97.1025C98.4025 0.694 99.5465 0.979999 100.534 1.552C101.54 2.124 102.32 2.91267 102.874 3.918C103.429 4.906 103.706 6.05867 103.706 7.376C103.706 8.64133 103.429 9.768 102.874 10.756C102.32 11.744 101.54 12.5153 100.534 13.07C99.5465 13.6247 98.4025 13.902 97.1025 13.902H93.1245V19.778C93.1245 20.1247 93.0118 20.4193 92.7865 20.662C92.5611 20.8873 92.2665 21 91.9025 21ZM93.1245 11.614H97.1025C97.9345 11.614 98.6711 11.432 99.3125 11.068C99.9538 10.704 100.456 10.2013 100.82 9.56C101.184 8.91867 101.366 8.19067 101.366 7.376C101.366 6.50933 101.184 5.74667 100.82 5.088C100.456 4.42933 99.9538 3.918 99.3125 3.554C98.6711 3.17267 97.9345 2.982 97.1025 2.982H93.1245V11.614ZM107.662 21C107.298 21 107.003 20.8873 106.778 20.662C106.553 20.4367 106.44 20.1507 106.44 19.804V7.974C106.44 7.61 106.553 7.324 106.778 7.116C107.003 6.89067 107.298 6.778 107.662 6.778C108.009 6.778 108.295 6.89067 108.52 7.116C108.745 7.324 108.858 7.61 108.858 7.974V19.804C108.858 20.1507 108.745 20.4367 108.52 20.662C108.295 20.8873 108.009 21 107.662 21ZM107.636 4.308C107.203 4.308 106.83 4.152 106.518 3.84C106.206 3.528 106.05 3.14667 106.05 2.696C106.05 2.24533 106.206 1.87267 106.518 1.578C106.847 1.266 107.229 1.11 107.662 1.11C108.078 1.11 108.442 1.266 108.754 1.578C109.083 1.87267 109.248 2.24533 109.248 2.696C109.248 3.14667 109.092 3.528 108.78 3.84C108.468 4.152 108.087 4.308 107.636 4.308ZM115.069 21C114.774 21 114.506 20.896 114.263 20.688C114.038 20.4627 113.925 20.168 113.925 19.804V6.83C113.925 5.59933 114.159 4.52467 114.627 3.606C115.095 2.68733 115.754 1.97667 116.603 1.474C117.47 0.953999 118.484 0.694 119.645 0.694C119.992 0.694 120.278 0.797999 120.503 1.006C120.728 1.214 120.841 1.474 120.841 1.786C120.841 2.08067 120.728 2.34067 120.503 2.566C120.278 2.774 119.992 2.878 119.645 2.878C118.952 2.878 118.354 3.034 117.851 3.346C117.366 3.658 116.984 4.1 116.707 4.672C116.447 5.22667 116.317 5.88533 116.317 6.648V19.804C116.317 20.168 116.204 20.4627 115.979 20.688C115.771 20.896 115.468 21 115.069 21ZM112.599 9.352C112.27 9.352 112.001 9.25667 111.793 9.066C111.602 8.87533 111.507 8.63267 111.507 8.338C111.507 8.026 111.602 7.77467 111.793 7.584C112.001 7.39333 112.27 7.298 112.599 7.298H119.151C119.48 7.298 119.749 7.39333 119.957 7.584C120.165 7.77467 120.269 8.026 120.269 8.338C120.269 8.63267 120.165 8.87533 119.957 9.066C119.749 9.25667 119.48 9.352 119.151 9.352H112.599ZM124.611 21C124.316 21 124.048 20.896 123.805 20.688C123.58 20.4627 123.467 20.168 123.467 19.804V6.83C123.467 5.59933 123.701 4.52467 124.169 3.606C124.637 2.68733 125.296 1.97667 126.145 1.474C127.012 0.953999 128.026 0.694 129.187 0.694C129.534 0.694 129.82 0.797999 130.045 1.006C130.27 1.214 130.383 1.474 130.383 1.786C130.383 2.08067 130.27 2.34067 130.045 2.566C129.82 2.774 129.534 2.878 129.187 2.878C128.494 2.878 127.896 3.034 127.393 3.346C126.908 3.658 126.526 4.1 126.249 4.672C125.989 5.22667 125.859 5.88533 125.859 6.648V19.804C125.859 20.168 125.746 20.4627 125.521 20.688C125.313 20.896 125.01 21 124.611 21ZM122.141 9.352C121.812 9.352 121.543 9.25667 121.335 9.066C121.144 8.87533 121.049 8.63267 121.049 8.338C121.049 8.026 121.144 7.77467 121.335 7.584C121.543 7.39333 121.812 7.298 122.141 7.298H128.693C129.022 7.298 129.291 7.39333 129.499 7.584C129.707 7.77467 129.811 8.026 129.811 8.338C129.811 8.63267 129.707 8.87533 129.499 9.066C129.291 9.25667 129.022 9.352 128.693 9.352H122.141ZM138.231 21.104C136.793 21.104 135.519 20.8007 134.409 20.194C133.317 19.57 132.459 18.7207 131.835 17.646C131.211 16.554 130.899 15.306 130.899 13.902C130.899 12.4807 131.194 11.2327 131.783 10.158C132.373 9.066 133.187 8.21667 134.227 7.61C135.267 6.986 136.472 6.674 137.841 6.674C139.176 6.674 140.329 6.97733 141.299 7.584C142.27 8.17333 143.015 8.99667 143.535 10.054C144.055 11.094 144.315 12.2987 144.315 13.668C144.315 13.9627 144.211 14.214 144.003 14.422C143.813 14.6127 143.553 14.708 143.223 14.708H132.537V12.784H143.249L142.183 13.538C142.166 12.6193 141.984 11.796 141.637 11.068C141.291 10.34 140.797 9.768 140.155 9.352C139.514 8.936 138.743 8.728 137.841 8.728C136.853 8.728 135.995 8.95333 135.267 9.404C134.557 9.85467 134.011 10.47 133.629 11.25C133.248 12.03 133.057 12.914 133.057 13.902C133.057 14.89 133.274 15.774 133.707 16.554C134.158 17.3167 134.765 17.9233 135.527 18.374C136.307 18.8247 137.209 19.05 138.231 19.05C138.786 19.05 139.358 18.946 139.947 18.738C140.554 18.53 141.031 18.2873 141.377 18.01C141.62 17.8193 141.88 17.724 142.157 17.724C142.435 17.7067 142.677 17.7847 142.885 17.958C143.145 18.2007 143.284 18.4693 143.301 18.764C143.319 19.0413 143.197 19.284 142.937 19.492C142.348 19.96 141.611 20.35 140.727 20.662C139.861 20.9567 139.029 21.104 138.231 21.104ZM148.402 12.16C148.436 11.1027 148.705 10.158 149.208 9.326C149.728 8.494 150.412 7.83533 151.262 7.35C152.111 6.86467 153.047 6.622 154.07 6.622C155.023 6.622 155.734 6.76933 156.202 7.064C156.687 7.35867 156.869 7.73133 156.748 8.182C156.696 8.442 156.592 8.63267 156.436 8.754C156.28 8.858 156.098 8.91867 155.89 8.936C155.682 8.936 155.456 8.91867 155.214 8.884C154.156 8.71067 153.212 8.73667 152.38 8.962C151.548 9.18733 150.889 9.57733 150.404 10.132C149.918 10.6867 149.676 11.3627 149.676 12.16H148.402ZM148.48 21C148.116 21 147.83 20.9047 147.622 20.714C147.414 20.506 147.31 20.2113 147.31 19.83V7.948C147.31 7.584 147.414 7.298 147.622 7.09C147.83 6.882 148.116 6.778 148.48 6.778C148.878 6.778 149.173 6.882 149.364 7.09C149.572 7.28067 149.676 7.56667 149.676 7.948V19.83C149.676 20.194 149.572 20.48 149.364 20.688C149.173 20.896 148.878 21 148.48 21ZM74.7049 50C74.3582 50 74.0636 49.8873 73.8209 49.662C73.5956 49.4193 73.4829 49.1247 73.4829 48.778V30.916C73.4829 30.552 73.5956 30.2573 73.8209 30.032C74.0636 29.8067 74.3582 29.694 74.7049 29.694H86.6389C86.9856 29.694 87.2716 29.8067 87.4969 30.032C87.7222 30.24 87.8349 30.5173 87.8349 30.864C87.8349 31.176 87.7222 31.4447 87.4969 31.67C87.2716 31.878 86.9856 31.982 86.6389 31.982H75.9269V38.638H83.6489C84.0129 38.638 84.2989 38.7507 84.5069 38.976C84.7322 39.184 84.8449 39.4527 84.8449 39.782C84.8449 40.1113 84.7322 40.3887 84.5069 40.614C84.2989 40.822 84.0129 40.926 83.6489 40.926H75.9269V47.712H86.6389C86.9856 47.712 87.2716 47.8247 87.4969 48.05C87.7222 48.258 87.8349 48.518 87.8349 48.83C87.8349 49.1767 87.7222 49.4627 87.4969 49.688C87.2716 49.896 86.9856 50 86.6389 50H74.7049ZM100.133 50C99.942 50 99.7774 49.974 99.6387 49.922C99.5 49.8527 99.3614 49.7313 99.2227 49.558L94.6727 43.994L93.8147 43.162L89.2907 37.65C89.0654 37.4073 88.9527 37.1387 88.9527 36.844C88.9527 36.5493 89.0394 36.298 89.2127 36.09C89.386 35.882 89.646 35.778 89.9927 35.778C90.3567 35.778 90.66 35.908 90.9027 36.168L95.3227 41.576L95.9987 42.2L100.861 48.18C101.103 48.4747 101.216 48.7607 101.199 49.038C101.181 49.3153 101.069 49.5493 100.861 49.74C100.67 49.9133 100.427 50 100.133 50ZM90.0707 50C89.7414 50 89.4814 49.9047 89.2907 49.714C89.1174 49.506 89.0307 49.2633 89.0307 48.986C89.0307 48.6913 89.1347 48.4053 89.3427 48.128L93.9187 42.408L95.2187 44.202L90.9027 49.636C90.6947 49.8787 90.4174 50 90.0707 50ZM96.3627 43.292L94.7767 41.836L99.0667 36.22C99.2054 36.0467 99.344 35.934 99.4827 35.882C99.6387 35.8127 99.812 35.778 100.003 35.778C100.349 35.778 100.609 35.8907 100.783 36.116C100.956 36.324 101.034 36.5753 101.017 36.87C101.017 37.1647 100.913 37.4507 100.705 37.728L96.3627 43.292ZM105.377 56.084C105.031 56.084 104.745 55.9713 104.519 55.746C104.294 55.5207 104.181 55.2347 104.181 54.888V42.85C104.199 41.498 104.519 40.276 105.143 39.184C105.785 38.092 106.643 37.234 107.717 36.61C108.792 35.986 110.005 35.674 111.357 35.674C112.727 35.674 113.949 35.9947 115.023 36.636C116.115 37.26 116.973 38.118 117.597 39.21C118.239 40.2847 118.559 41.5153 118.559 42.902C118.559 44.2713 118.256 45.502 117.649 46.594C117.06 47.686 116.254 48.544 115.231 49.168C114.209 49.792 113.056 50.104 111.773 50.104C110.681 50.104 109.693 49.8787 108.809 49.428C107.925 48.9773 107.18 48.3707 106.573 47.608V54.888C106.573 55.2347 106.461 55.5207 106.235 55.746C106.027 55.9713 105.741 56.084 105.377 56.084ZM111.357 47.972C112.276 47.972 113.099 47.7553 113.827 47.322C114.573 46.8713 115.153 46.2647 115.569 45.502C116.003 44.722 116.219 43.8553 116.219 42.902C116.219 41.9313 116.003 41.0647 115.569 40.302C115.153 39.522 114.573 38.9153 113.827 38.482C113.099 38.0313 112.276 37.806 111.357 37.806C110.439 37.806 109.607 38.0313 108.861 38.482C108.133 38.9327 107.561 39.5393 107.145 40.302C106.729 41.0647 106.521 41.9313 106.521 42.902C106.521 43.8553 106.729 44.722 107.145 45.502C107.561 46.2647 108.133 46.8713 108.861 47.322C109.607 47.7553 110.439 47.972 111.357 47.972ZM123.215 41.16C123.25 40.1027 123.519 39.158 124.021 38.326C124.541 37.494 125.226 36.8353 126.075 36.35C126.925 35.8647 127.861 35.622 128.883 35.622C129.837 35.622 130.547 35.7693 131.015 36.064C131.501 36.3587 131.683 36.7313 131.561 37.182C131.509 37.442 131.405 37.6327 131.249 37.754C131.093 37.858 130.911 37.9187 130.703 37.936C130.495 37.936 130.27 37.9187 130.027 37.884C128.97 37.7107 128.025 37.7367 127.193 37.962C126.361 38.1873 125.703 38.5773 125.217 39.132C124.732 39.6867 124.489 40.3627 124.489 41.16H123.215ZM123.293 50C122.929 50 122.643 49.9047 122.435 49.714C122.227 49.506 122.123 49.2113 122.123 48.83V36.948C122.123 36.584 122.227 36.298 122.435 36.09C122.643 35.882 122.929 35.778 123.293 35.778C123.692 35.778 123.987 35.882 124.177 36.09C124.385 36.2807 124.489 36.5667 124.489 36.948V48.83C124.489 49.194 124.385 49.48 124.177 49.688C123.987 49.896 123.692 50 123.293 50ZM139.636 50.104C138.197 50.104 136.923 49.8007 135.814 49.194C134.722 48.57 133.864 47.7207 133.24 46.646C132.616 45.554 132.304 44.306 132.304 42.902C132.304 41.4807 132.599 40.2327 133.188 39.158C133.777 38.066 134.592 37.2167 135.632 36.61C136.672 35.986 137.877 35.674 139.246 35.674C140.581 35.674 141.733 35.9773 142.704 36.584C143.675 37.1733 144.42 37.9967 144.94 39.054C145.46 40.094 145.72 41.2987 145.72 42.668C145.72 42.9627 145.616 43.214 145.408 43.422C145.217 43.6127 144.957 43.708 144.628 43.708H133.942V41.784H144.654L143.588 42.538C143.571 41.6193 143.389 40.796 143.042 40.068C142.695 39.34 142.201 38.768 141.56 38.352C140.919 37.936 140.147 37.728 139.246 37.728C138.258 37.728 137.4 37.9533 136.672 38.404C135.961 38.8547 135.415 39.47 135.034 40.25C134.653 41.03 134.462 41.914 134.462 42.902C134.462 43.89 134.679 44.774 135.112 45.554C135.563 46.3167 136.169 46.9233 136.932 47.374C137.712 47.8247 138.613 48.05 139.636 48.05C140.191 48.05 140.763 47.946 141.352 47.738C141.959 47.53 142.435 47.2873 142.782 47.01C143.025 46.8193 143.285 46.724 143.562 46.724C143.839 46.7067 144.082 46.7847 144.29 46.958C144.55 47.2007 144.689 47.4693 144.706 47.764C144.723 48.0413 144.602 48.284 144.342 48.492C143.753 48.96 143.016 49.35 142.132 49.662C141.265 49.9567 140.433 50.104 139.636 50.104ZM153.81 50.104C152.666 50.104 151.583 49.9307 150.56 49.584C149.538 49.22 148.732 48.726 148.142 48.102C147.917 47.842 147.822 47.556 147.856 47.244C147.891 46.932 148.047 46.6633 148.324 46.438C148.619 46.2127 148.922 46.1173 149.234 46.152C149.546 46.1867 149.806 46.3253 150.014 46.568C150.361 46.9493 150.864 47.2787 151.522 47.556C152.198 47.8333 152.935 47.972 153.732 47.972C154.859 47.972 155.691 47.79 156.228 47.426C156.783 47.0447 157.069 46.5767 157.086 46.022C157.086 45.45 156.818 44.9733 156.28 44.592C155.743 44.1933 154.798 43.8813 153.446 43.656C151.696 43.3267 150.422 42.8153 149.624 42.122C148.827 41.4287 148.428 40.588 148.428 39.6C148.428 38.716 148.671 37.988 149.156 37.416C149.659 36.8267 150.309 36.3933 151.106 36.116C151.921 35.8213 152.779 35.674 153.68 35.674C154.824 35.674 155.83 35.8647 156.696 36.246C157.563 36.61 158.256 37.1213 158.776 37.78C159.002 38.04 159.097 38.3087 159.062 38.586C159.045 38.8633 158.906 39.0973 158.646 39.288C158.386 39.444 158.083 39.496 157.736 39.444C157.407 39.392 157.13 39.2447 156.904 39.002C156.471 38.5513 155.986 38.2393 155.448 38.066C154.928 37.8753 154.322 37.78 153.628 37.78C152.796 37.78 152.103 37.936 151.548 38.248C151.011 38.56 150.742 38.9847 150.742 39.522C150.742 39.8687 150.829 40.172 151.002 40.432C151.193 40.692 151.54 40.9347 152.042 41.16C152.545 41.368 153.264 41.5587 154.2 41.732C155.5 41.9747 156.523 42.2953 157.268 42.694C158.031 43.0927 158.577 43.5607 158.906 44.098C159.236 44.6353 159.4 45.242 159.4 45.918C159.4 46.7153 159.175 47.4347 158.724 48.076C158.291 48.7 157.658 49.194 156.826 49.558C155.994 49.922 154.989 50.104 153.81 50.104ZM167.487 50.104C166.343 50.104 165.259 49.9307 164.237 49.584C163.214 49.22 162.408 48.726 161.819 48.102C161.593 47.842 161.498 47.556 161.533 47.244C161.567 46.932 161.723 46.6633 162.001 46.438C162.295 46.2127 162.599 46.1173 162.911 46.152C163.223 46.1867 163.483 46.3253 163.691 46.568C164.037 46.9493 164.54 47.2787 165.199 47.556C165.875 47.8333 166.611 47.972 167.409 47.972C168.535 47.972 169.367 47.79 169.905 47.426C170.459 47.0447 170.745 46.5767 170.763 46.022C170.763 45.45 170.494 44.9733 169.957 44.592C169.419 44.1933 168.475 43.8813 167.123 43.656C165.372 43.3267 164.098 42.8153 163.301 42.122C162.503 41.4287 162.105 40.588 162.105 39.6C162.105 38.716 162.347 37.988 162.833 37.416C163.335 36.8267 163.985 36.3933 164.783 36.116C165.597 35.8213 166.455 35.674 167.357 35.674C168.501 35.674 169.506 35.8647 170.373 36.246C171.239 36.61 171.933 37.1213 172.453 37.78C172.678 38.04 172.773 38.3087 172.739 38.586C172.721 38.8633 172.583 39.0973 172.323 39.288C172.063 39.444 171.759 39.496 171.413 39.444C171.083 39.392 170.806 39.2447 170.581 39.002C170.147 38.5513 169.662 38.2393 169.125 38.066C168.605 37.8753 167.998 37.78 167.305 37.78C166.473 37.78 165.779 37.936 165.225 38.248C164.687 38.56 164.419 38.9847 164.419 39.522C164.419 39.8687 164.505 40.172 164.679 40.432C164.869 40.692 165.216 40.9347 165.719 41.16C166.221 41.368 166.941 41.5587 167.877 41.732C169.177 41.9747 170.199 42.2953 170.945 42.694C171.707 43.0927 172.253 43.5607 172.583 44.098C172.912 44.6353 173.077 45.242 173.077 45.918C173.077 46.7153 172.851 47.4347 172.401 48.076C171.967 48.7 171.335 49.194 170.503 49.558C169.671 49.922 168.665 50.104 167.487 50.104Z" fill="#1EE196"/>
<path fill-rule="evenodd" clip-rule="evenodd" d="M13.3334 16.2963V55L2.19345e-05 38.7037V2.94315e-05L0 2.6226e-06H2.19345e-05V0L2.40803e-05 2.6226e-06H31.6667L45 16.2963L13.3334 16.2963Z" fill="url(#paint0_linear_0_119)"/>
<path fill-rule="evenodd" clip-rule="evenodd" d="M35.1852 38.7037L35.1852 -2.6226e-06L50 16.2963L50 55L50 55H50V55L50 55L14.8148 55L0 38.7037L35.1852 38.7037Z" fill="#E5E5E5"/>
<defs>
<linearGradient id="paint0_linear_0_119" x1="31.6667" y1="-4.26473e-07" x2="6.07862" y2="51.3876" gradientUnits="userSpaceOnUse">
<stop stop-color="#0ACF83"/>
<stop offset="1" stop-color="#FF4D00"/>
</linearGradient>
</defs>
</svg>
